<svg xmlns="http://www.w3.org/2000/svg" viewBox="0 0 173.84 102.1"><defs><style>.cls-1{fill:#6588c5;}.cls-2{fill:#fff;}</style></defs><g id="Layer_2" data-name="Layer 2"><g id="Layer_1-2" data-name="Layer 1"><path class="cls-1" d="M69.18,38.33c-8.81,5.52-17.64,11.56-24.69,19.28C36.82,66,31,77,32,88.67c.47,5.37,2.81,11.32,8.53,12.92a10,10,0,0,0,8.24-1.28,10.33,10.33,0,0,0,4.77-8.55l-.26,1.91a11.62,11.62,0,0,1,.28-1.33c.07-.25.16-.49.24-.74,0-.1.09-.21.12-.31.2-.67-.8,1.7-.46,1.08.54-1,1-2,1.67-2.92.18-.25.36-.51.55-.76.72-1-.76.93-.45.57.44-.51.86-1,1.31-1.54.92-1,1.89-2,2.9-3s2.17-2,3.29-2.94l1.68-1.39.8-.63.53-.42c.75-.59-.55.43-.65.5,2.51-1.65,4.86-3.59,7.35-5.27,2.22-1.51,4.48-3,6.75-4.42,2.56-1.62,5.19-3.05,6.84-5.71,3-4.73,2.48-11.54.68-16.59-1-2.93-2.5-6.05-4.93-8.11-3.61-3.06-8.39-4-12.6-1.44-3.23,1.92-4.69,6.55-2.58,9.83a7.31,7.31,0,0,0,9.83,2.58c1.12-.67-1.82.47-.92.34.21,0,.41-.11.62-.14l-1.91.26a3.21,3.21,0,0,1,.62,0l-1.91-.26c.2,0,.39.1.59.13.87.12-2-.92-1.14-.48a4.78,4.78,0,0,0,.42.26c-1.56-.64-1.47-1.23-.78-.56l.38.4c.78.81-.62-.7-.63-.84,0,.33.61.93.78,1.25s.93,2,.32.57.07.28.21.71a21.07,21.07,0,0,1,.74,3.33l-.26-1.91a15.86,15.86,0,0,1,0,4.13L73.87,56a13.39,13.39,0,0,1-.42,1.77c-.25.91,1-1.94.35-.87a2.91,2.91,0,0,0-.17.3c-.36.78,1.26-1.55.71-.91s-1,.39.84-.58c-.25.13-.48.3-.71.45l-2,1.24c-3,1.87-5.9,3.79-8.79,5.78C57.11,67.77,50.23,72.7,45.16,79a31.38,31.38,0,0,0-3.85,5.59A21,21,0,0,0,39.14,92l.26-1.92a4.18,4.18,0,0,1-.13.62l.47-1.14c-.28.43-.21.36.2-.22a2,2,0,0,1,.84-.85c.54-.38.66-.48.35-.29-.59.34,1.85-.6.7-.34l1.91-.26a3.5,3.5,0,0,1-1,0l1.91.26c-.69-.19-.45-.08.72.34,1,.85,1.25,1,.79.58,1.51,1.61.7,1,.34.29-.76-1.43.38,1.47,0,.12-.13-.55-.29-1.07-.38-1.62l.25,1.91a28,28,0,0,1,.08-6.9l-.26,1.91a30.68,30.68,0,0,1,1.09-4.83c.23-.73.5-1.44.77-2.16.39-1-.77,1.68-.15.35.21-.45.42-.89.64-1.34a42,42,0,0,1,2.52-4.3c.44-.65.9-1.28,1.37-1.92.68-.92-1.17,1.49-.19.25.29-.35.57-.7.87-1a66.57,66.57,0,0,1,7.3-7.34c1.26-1.1,2.56-2.15,3.88-3.19.86-.68-.62.48-.64.49.17-.15.37-.28.55-.42l1-.72,2.06-1.49c3-2.12,6-4.1,9.13-6s4.73-6.5,2.58-9.83S72.59,36.2,69.18,38.33Z"/><path class="cls-1" d="M48.29,64.54c7.24-4.35,6.53-14.67,2.28-20.9-2.48-3.63-6.09-6.47-10.68-6.47s-8.62,3.6-12.06,6.31c-1.51,1.18-3,2.41-4.43,3.66l-1.46,1.24-.46.38c2.78-2.38,1.57-1.07,1.09-.87l3.62-1h0l1.91.26A46.33,46.33,0,0,0,18.94,45,9.9,9.9,0,0,0,9.71,49.7c-3,4.76-1.78,11.22-.06,16.19l1.85-7A54.1,54.1,0,0,0,2.2,74.6C.22,80-.89,86.27.91,91.85a15.61,15.61,0,0,0,6.21,8.46,9.47,9.47,0,0,0,13.19-2.92c2.22-3.3,3.84-7,5.8-10.5a69.53,69.53,0,0,1,4-6.34l.51-.69c.46-.63-1.23,1.54-.29.39.38-.47.77-.92,1.18-1.36s.72-.75,1.1-1.11l.56-.5c1.08-1-1.39,1-.43.32L24,76.47c3.58,4.56,10.9,6.87,15.42,2.16C42.92,75,44.26,69,43.78,64.06l-2.11,5.08q.87-.78,1.77-1.53c1.23-1-1.33.94,0,0l.91-.64c1.28-.89,2.62-1.69,4-2.46,3.27-1.86,4.66-6.6,2.58-9.83A7.32,7.32,0,0,0,41,52.13a57.64,57.64,0,0,0-7.58,5.18c-2.17,1.72-4,3.78-4.05,6.75A29.72,29.72,0,0,1,29.34,68L29.6,66a18.83,18.83,0,0,1-.79,3.06c-.2.52-.09.26.33-.77-.12.25-.24.48-.37.72-.41.67-.24.48.5-.58q4-1.8,2.2-1.35l1.91-.25a2.35,2.35,0,0,1-.53,0l1.91.25c-1.47-.24.68.25.61.37s-1.69-1.16-.36-.15c1.06.8.09,0-.12-.22s-.48-.54-.71-.82c-1.77-2.26-6.38-2.83-8.7-1.12-4.83,3.54-8.26,8.37-11.24,13.51-1.27,2.19-2.46,4.43-3.65,6.66-.49.93-1,1.86-1.5,2.77-.23.43-.48.84-.71,1.26-.36.63-.61.5.42-.43l1-.72c1.32-.45,1.65-.6,1-.44l1.91-.26a1.81,1.81,0,0,1-.52,0l1.91.26c-.76-.15-.89-.55.7.35-1-.55,1.28,1.26.49.41-.17-.19-.36-.37-.54-.55-1-1,.7,1.1.4.52-.13-.24-.29-.49-.44-.72-.23-.49-.21-.42.07.22s.29.7.09.18A22.1,22.1,0,0,1,14.31,86l.26,1.91a19.13,19.13,0,0,1,0-4.9L14.31,85a31.5,31.5,0,0,1,1.75-6.53c.11-.31.23-.61.35-.91.36-1-.3.55-.28.65-.07-.35.56-1.23.72-1.56.51-1,1.08-2,1.68-3s1.23-1.93,1.89-2.86c.2-.29.41-.57.62-.86s.76-1,.09-.14l.11-.14a16.17,16.17,0,0,0,1.55-2c2.05-3.5-.08-7.18-.59-10.79l.25,1.91a13.5,13.5,0,0,1-.05-3.36l-.26,1.91c.05-.34.16-.67.22-1,.17-1-1,1.89-.24.69-.95,1.13-1.19,1.46-.72,1-1.22.87-1.53,1.12-.95.76-1.93,1.07-1.51.53-.66.41l-1.91.26a5.38,5.38,0,0,1,1.06,0L17,59.14a32.71,32.71,0,0,1,3.78.84c2.1.58,4.12,1.47,6.34,1.17,2.64-.35,4.38-2.11,6.31-3.76.77-.67,1.54-1.32,2.33-2l1.35-1.11.7-.56c.68-.54-1.39,1.06-.44.34s2.05-1.52,3.11-2.21c.46-.29,1-.55,1.4-.86.62-.42-1.95.61-1,.44l.57-.14-1.91.26a4.13,4.13,0,0,1,.93,0l-1.91-.26c.19,0,.36.08.55.12.73.15.62.78-1-.44.13.09.29.15.43.24.85.57-.87-.7-.87-.71a8.11,8.11,0,0,0,.94.91c.22.23.72.91-.13-.19s-.27-.33-.09-.05A12,12,0,0,1,39,52.35a2.75,2.75,0,0,0,.31.67c-.08-.08-.73-2-.4-.91a17,17,0,0,1,.67,2.71l-.26-1.91a9.33,9.33,0,0,1,0,2.24l.26-1.91c0,.27-.11.54-.16.81-.26,1.26.82-1.61.33-.73a1.5,1.5,0,0,0-.19.32c-.08.37,1-1.29.78-1-.71.76,1.77-1.16.66-.49-3.23,1.93-4.7,6.54-2.58,9.83A7.31,7.31,0,0,0,48.29,64.54Z"/><path class="cls-1" d="M117.24,38c-8.86-2.47-18.3.64-25.62,5.76s-13.87,12-16.19,20.83c-1.5,5.72-1.32,12.27,1.8,17.44l2.58-9.83a21.35,21.35,0,0,0-8.38,11.06C70.12,87.19,71,91,72.58,94.59c1.39,3.2,4,6.29,7.53,7.21,5.22,1.37,9.57-2.12,11.32-6.79.13-.35.24-.7.36-1.06l.12-.33c.27-.85-.63,1.4-.56,1.3s.24-.5.37-.73.45-.54.51-.79c0,.09-1.41,1.7-.71.93.15-.16.29-.33.44-.48.32-.33.66-.63,1-.94.82-.74-.41.36-.7.52.27-.15.52-.38.77-.55a30.94,30.94,0,0,1,3.78-2.19c.82-.41,1.72-.72,2.52-1.17,0,0-1.38.58-.63.27s1.32-.52,2-.82c.2-.1.39-.19.57-.3,3.54-2.12,5.16-5.82,5.56-9.76a14.18,14.18,0,0,0-2.49-9.26,14.78,14.78,0,0,0-11.81-6.32l6.2,10.81a9.1,9.1,0,0,0,.93-1.33c-.71.89-.81,1-.31.42l.45-.51a22.1,22.1,0,0,1,2.39-2.25l-12-3.18a21.15,21.15,0,0,0,3.17,7.84,18.58,18.58,0,0,0,9.14,7c6.13,2.23,14,2,19.47-1.84A22.09,22.09,0,0,0,131,66.45a28.68,28.68,0,0,0-.67-15.24C128.13,44.92,123.73,40,117.24,38a7.25,7.25,0,0,0-8.84,5,7.33,7.33,0,0,0,5,8.84c.36.11.71.25,1.07.36-2.1-.68-1.31-.57-.72-.27a17.21,17.21,0,0,1,1.57,1c-2.2-1.47-.45-.32.09.27.22.23,1,1.23.11.07s-.12-.15.06.12a14,14,0,0,1,.91,1.6c.27.54.54,1.52-.28-.74.12.34.26.67.37,1a20,20,0,0,1,.86,3.75l-.26-1.91a23.53,23.53,0,0,1,0,5.81l.25-1.91a21.89,21.89,0,0,1-.88,3.91c-.11.32-.24.64-.36,1,.84-2.41.51-1.16.22-.57a14.19,14.19,0,0,1-.83,1.47c-.35.53-1.15,1.26.35-.39-.25.28-.47.57-.73.84s-.69.67-1,1c-.88.82,1.59-1.06.06-.09-.29.18-.59.35-.89.51-1.61.84,1.31-.4.16,0a18.41,18.41,0,0,1-2.66.64l1.91-.26a17.27,17.27,0,0,1-4.31,0l1.91.26a21.94,21.94,0,0,1-2.26-.43c-.38-.09-.76-.19-1.13-.3-.65-.21-1.35-.84.36.21-.51-.32-1.09-.61-1.62-.9s1.45,1.33.44.34c-.22-.22-.46-.43-.67-.65s-.33-.4-.51-.59c1.48,1.5.75,1,.4.46s-.57-1.1-.88-1.64c1,1.81.49,1.18.26.54-.11-.3-.2-.6-.29-.91-.19-.62-.33-1.25-.46-1.89a7.12,7.12,0,0,0-5-5c-2.66-.74-5,.17-7,1.84a29.43,29.43,0,0,0-5.7,6.59,7.11,7.11,0,0,0,0,7.25,7.33,7.33,0,0,0,6.2,3.56c.29,0,.58,0,.88.07l-1.91-.26a10.24,10.24,0,0,1,1.2.25l.49.17c.76.23-1.75-.92-.91-.36.31.2,1.46,1,.28.1s-.15,0,.13.24c.61.56-.78-.86-.69-.92l.26.38c.17.3.33.6.49.9.38.68-.69-1.93-.42-1,0,.15.09.29.13.43a8.32,8.32,0,0,1,.23,1.08l-.25-1.91a8.44,8.44,0,0,1,0,2.13l.26-1.91c-.08.48-.69,2.17-.07.68s.17-.5,0-.18c-.43.89,1.41-1.62.61-.8-.63.65-.67,0,.83-.59-.46.19-1.53.72.61-.19-1.4.6-2.81,1.17-4.19,1.82a31.46,31.46,0,0,0-8.32,5.49,16.58,16.58,0,0,0-4.06,6.37c-.15.41-.29.82-.42,1.24-.32,1,1.06-2,.49-1.18-.89,1.38,1.09-1.12.38-.44,1.23-.86,1.55-1.12,1-.78C81,88,81.41,87.83,80.76,88l1.91-.26a1.93,1.93,0,0,1-.48,0L84.1,88c-1.23-.26,1.77.89.91.4s1.69,1.45.67.47.92,1.47.4.54c-.17-.3-.36-.57-.53-.87s-.3-.62-.46-.94c1.12,2.23.46,1.13.25.49a11.26,11.26,0,0,1-.44-1.89l.26,1.91a6.14,6.14,0,0,1,0-1.21l-.25,1.91c.09-.68.49-1.4.53-2.06q-.73,1.68-.27.66l.18-.33A11.91,11.91,0,0,1,86,85.92c.87-1.29-.69.78-.21.23.26-.29.5-.58.76-.86s.54-.56.81-.83c1.23-1.19-1.29.78-.31.16a7.31,7.31,0,0,0,2.58-9.83c-.17-.28-.32-.57-.48-.86-.62-1.1.63,1.79.12.21a15.37,15.37,0,0,1-.54-2.51L89,73.54a18.79,18.79,0,0,1,.07-4.68l-.26,1.91a26.89,26.89,0,0,1,1.29-4.83c.24-.69-.77,1.68-.09.23.17-.36.35-.72.53-1.07.38-.7.79-1.38,1.23-2,.16-.24,1-1.43.21-.35s.06-.06.24-.27c.42-.5.85-1,1.29-1.47,1-1,2-2,3-2.94.55-.49,1.12-.95,1.69-1.42,1.1-.89-1.42,1.05-.27.22.31-.22.61-.45.92-.66a39.7,39.7,0,0,1,3.88-2.4c.67-.35,1.35-.67,2-1,1.24-.6-1.53.58-.33.14.35-.13.7-.27,1.05-.39a25.43,25.43,0,0,1,4.63-1.13l-1.91.26a19.47,19.47,0,0,1,4.64,0L111,51.36a18.7,18.7,0,0,1,2.45.51c3.62,1,8-1.24,8.84-5A7.32,7.32,0,0,0,117.24,38Z"/><path class="cls-1" d="M109.84,54.16a4.71,4.71,0,0,1-.93.52l1.72-.73a8.65,8.65,0,0,1-2.06.52l1.91-.26a14.94,14.94,0,0,1-3.78,0l1.91.26a8.45,8.45,0,0,1-1.8-.44V67.88a26.37,26.37,0,0,1,5.52-1.5l-1.91.26a12.17,12.17,0,0,1,3.19,0l-1.91-.26c.28,0,.56.1.83.16l-3.17-12a7.8,7.8,0,0,1-.69.6L110.12,54l-.28.21a5.5,5.5,0,0,0-2,1.85,6.46,6.46,0,0,0-1.42,5.31,5.34,5.34,0,0,0,.86,2.67,7.25,7.25,0,0,0,4.29,3.31l1.91.25a7.11,7.11,0,0,0,3.63-1,24.86,24.86,0,0,0,2.42-1.92,7.18,7.18,0,0,0-3.17-12c-4.44-1.1-9.15-.21-13.36,1.39l-1.72.72a5.42,5.42,0,0,0-2,1.85,3.57,3.57,0,0,0-.93,1.59A5.35,5.35,0,0,0,97.72,61a8.37,8.37,0,0,0,1,3.63,8,8,0,0,0,4.29,3.3,16,16,0,0,0,4,.74,16.35,16.35,0,0,0,2.32.07c.4,0,.79-.06,1.18-.11a23.07,23.07,0,0,0,3-.46,12.4,12.4,0,0,0,1.85-.67,9.6,9.6,0,0,0,1.79-.88,5.35,5.35,0,0,0,2-1.85,5.34,5.34,0,0,0,1.29-2.44,5.5,5.5,0,0,0,.13-2.87,5.49,5.49,0,0,0-.85-2.67,7.3,7.3,0,0,0-4.3-3.3A7.1,7.1,0,0,0,109.84,54.16Z"/><path class="cls-1" d="M61.55,48.69c2.15-1.48,4.26-3,6.33-4.58,1.44-1.09,2.86-2.2,4.28-3.32,1-.8-1.46,1.12-.65.51l.95-.73q4.59-3.43,9.36-6.6c1.5-1,3-2,4.56-2.87a19.22,19.22,0,0,0,4.28-2.82c2.94-2.87,3.72-7.49,3.28-11.41a22,22,0,0,0-4.78-12,11.16,11.16,0,0,0-5.45-3.53c-3-.78-5.55-.09-8.32,1.16a67.84,67.84,0,0,0-11.91,7A73.15,73.15,0,0,0,51.61,19.81,28.58,28.58,0,0,0,46,28.19a18.73,18.73,0,0,0-.44,10.62,17.74,17.74,0,0,0,3.93,7.85,9.49,9.49,0,0,0,12.06,2c3.2-2,4.71-6.53,2.58-9.83s-6.4-4.68-9.83-2.58c-1,.6,1.71-.52.73-.33l1.91-.26a1.77,1.77,0,0,1-.46,0l1.91.26c-.68-.15-.32,0,1.06.51-.59-.34-.31-.11.84.72a7.4,7.4,0,0,0-.55-.57c1.27,1.16.9,1.24.48.55-.17-.27-.33-.56-.47-.84-.33-.65-.43-1.59.26.69-.06-.19-.14-.38-.21-.57a14.36,14.36,0,0,1-.58-2.58l.26,1.91a14.6,14.6,0,0,1,0-3.1l-.25,1.91a10.68,10.68,0,0,1,.2-1.13c.06-.28.64-1.83.1-.58s.08,0,.24-.31.38-.57.58-.85c.33-.46,1.31-1.51-.18.21.23-.27.44-.56.67-.84.47-.56,1-1.12,1.46-1.66a62.46,62.46,0,0,1,7.14-6.56c1.26-1-.73.55-.16.12l1-.74q1.07-.78,2.16-1.53c1.32-.9,2.66-1.77,4-2.59s2.63-1.51,4-2.19c.63-.33,1.27-.64,1.91-.93l.63-.28c-1.27.5-1.65.66-1.15.49.2,0,.4-.12.6-.15l-1.91.25a3.84,3.84,0,0,1,.83,0l-1.91-.26a2.73,2.73,0,0,1,.48.1c.9.29-1.87-1-1.1-.47a3.18,3.18,0,0,0,.44.26c-1.78-.84-1.41-1.2-.89-.67s.94,1.6-.22-.42c.21.37.47.7.68,1.08.39.7.75,2.19,0-.29.14.45.33.89.47,1.34a17.66,17.66,0,0,1,.6,2.8l-.26-1.91a13.41,13.41,0,0,1,0,3.35l.26-1.91a13.41,13.41,0,0,1-.36,1.52c-.26,1,1-2,.36-.92s1.3-1.45.64-.79-.33-.26,1-.71c-.18.07-.39.23-.57.32-.53.27-1,.54-1.56.83-2.71,1.55-5.29,3.31-7.85,5.08s-4.88,3.44-7.25,5.25c-1,.76-2,1.54-3,2.32l-.72.55c.88-.67,1-.78.42-.32l-1,.78c-1.85,1.4-3.74,2.75-5.65,4.06A7.7,7.7,0,0,0,51,40.57a7.35,7.35,0,0,0,.73,5.54C53.7,49.19,58.23,51,61.55,48.69Z"/><path class="cls-1" d="M122.93,38.48a22.86,22.86,0,0,0,6.61-18.21c-.75-6.84-4.18-14.28-11.53-16l4.3,3.3A12.82,12.82,0,0,0,110.52.4c-4.11,0-8,1.46-11.68,3.21a27.18,27.18,0,0,0-8,5.51,28.3,28.3,0,0,0-5.67,9.11,24.32,24.32,0,0,0,.73,20A18.06,18.06,0,0,0,103.71,48a32.17,32.17,0,0,0,19.22-9.47c2.65-2.67,2.87-7.53,0-10.16a7.31,7.31,0,0,0-10.16,0c-.4.39-.8.78-1.22,1.15l-.68.58c-1.17,1,.52-.35.51-.38.09.21-3,2-3.32,2.16-.57.31-1.15.59-1.73.88-1.32.66,1.24-.46.52-.21l-.91.35a20.05,20.05,0,0,1-3.83.95l1.91-.26a14.78,14.78,0,0,1-3.64,0l1.91.25a11.51,11.51,0,0,1-1.74-.39c-.31-.09-1.22-.47,0,.06s.32.13,0,0a7.83,7.83,0,0,1-.79-.47c-.7-.45-.62-.85.44.37-.39-.45-.89-.85-1.3-1.29-.58-.63,1,1.46.4.52-.18-.27-.36-.54-.53-.82a8.52,8.52,0,0,1-.46-.84c-.15-.28-.56-1.23,0,0s.12.26,0,0-.2-.61-.28-.91a17.38,17.38,0,0,1-.38-1.88L97.94,30a18.52,18.52,0,0,1,0-4.82l-.26,1.91a21.15,21.15,0,0,1,.67-3c.14-.47.31-.93.47-1.4.41-1.19-.63,1.33-.28.66.12-.24.22-.5.34-.74a23.38,23.38,0,0,1,1.57-2.65c.32-.47,1-1-.45.55.15-.15.27-.33.41-.49a14.68,14.68,0,0,1,1.08-1.15c.33-.33.72-.61,1-.94.48-.5-1.59,1.1-.6.47l.51-.35a30.71,30.71,0,0,1,2.79-1.58c.57-.29,1.14-.55,1.72-.83.75-.35-1.78.69-.46.2l.74-.27a19.39,19.39,0,0,1,3.73-.93l-1.91.25a12.19,12.19,0,0,1,2.49,0l-1.91-.26c.35,0,.68.14,1,.2,1.27.22-1.51-.74-.48-.18s-1.29-1.11-.44-.29-.85-1.45-.32-.41a8,8,0,0,0,4.76,4.21c1.49.5-.44-.38-.5-.32.1-.11,1.68,1.14.35.1-1.07-.85-.11,0,.12.17,1.07.92-.66-1-.29-.45s.7,1.14,1,1.75-.71-1.87-.21-.45c.11.32.21.65.3,1a15,15,0,0,1,.42,2.1l-.25-1.91a19.32,19.32,0,0,1,0,4.3l.26-1.91a16.47,16.47,0,0,1-.44,2.2c-.1.36-.23.7-.34,1.05-.4,1.28.8-1.67.06-.18a15.91,15.91,0,0,1-1.16,1.95c-.9,1.29.67-.75.17-.21-.32.35-.63.71-1,1.05-2.61,2.71-2.9,7.5,0,10.16A7.31,7.31,0,0,0,122.93,38.48Z"/><path class="cls-1" d="M107.16,30.8a31.1,31.1,0,0,1,2.89-1.44l-1.72.73a19.91,19.91,0,0,1,4.08-1.2l-8.84-5a20.45,20.45,0,0,0,1.3,3L106,18.13c-.27.25-.54.49-.82.72l1.45-1.13a13.68,13.68,0,0,1-3,1.63l1.71-.73A18.28,18.28,0,0,1,101,19.9l1.91-.26a9.42,9.42,0,0,1-2.43,0l1.91.26-.31-.05,3.17,12a7.55,7.55,0,0,1,.74-.64l-1.45,1.12a22.12,22.12,0,0,1,2.59-1.58,7.42,7.42,0,0,0,3.31-4.3,5.46,5.46,0,0,0,.13-2.86,5.41,5.41,0,0,0-.86-2.68,7.28,7.28,0,0,0-4.29-3.3,7.64,7.64,0,0,0-5.54.73,21,21,0,0,0-4.79,3.35,7.17,7.17,0,0,0,0,10.16,7.18,7.18,0,0,0,3.17,1.85,19.73,19.73,0,0,0,3.25.37,23.12,23.12,0,0,0,3.31-.37A16.89,16.89,0,0,0,108,33a36,36,0,0,0,4.24-1.81,17.2,17.2,0,0,0,3.93-2.86l1.13-1.45a5.36,5.36,0,0,0,.85-2.67,3.64,3.64,0,0,0,0-1.91,5.33,5.33,0,0,0-.85-2.67c-.16-.29-.3-.57-.43-.87l.72,1.71c0-.12-.1-.25-.14-.37a5.38,5.38,0,0,0-1.29-2.45,5.42,5.42,0,0,0-2-1.85L112.41,15a7.08,7.08,0,0,0-3.82,0,27.84,27.84,0,0,0-8.68,3.35,7.35,7.35,0,0,0-3.3,4.29,5.5,5.5,0,0,0-.13,2.87,5.39,5.39,0,0,0,.85,2.67,7.3,7.3,0,0,0,4.3,3.3A7.67,7.67,0,0,0,107.16,30.8Z"/><path class="cls-1" d="M169.05,29c3-2.34,3.9-6.59,4.19-10.14A19.89,19.89,0,0,0,172,10.11c-1.64-4.13-4.47-7.49-9.06-8.34-5.63-1-10.74.83-15.71,3.33L157,7.67A17,17,0,0,0,150.49,2a22.49,22.49,0,0,0-8.67-2,23.48,23.48,0,0,0-7.26,1,17.24,17.24,0,0,0-7.06,3.72c-2.67,2.67-3.66,6.64-3.57,10.32a18.57,18.57,0,0,0,2.67,9.7,9.92,9.92,0,0,0,7,4.63,8.59,8.59,0,0,0,3.93-.27A9,9,0,0,0,140,28c-1,.8-1.11.36-.49.23.38-.08.75-.19,1.14-.25l-1.91.26a6,6,0,0,1,.73-.07L135.8,14.76c-4.62,2.3-9.52,4.41-13.27,8.07a16.56,16.56,0,0,0-5,12.13c-.08,3.69.47,8,2.5,11.16a9.6,9.6,0,0,0,7.92,4.7c3,0,5.37-1.52,7.73-3.1,2.08-1.4,4.06-2.91,6.12-4.33,2.42-1.66,5-3,7.49-4.57l-9.83-2.58a18.08,18.08,0,0,0,5.85,6.47,19.25,19.25,0,0,0,8.79,2.77,31.81,31.81,0,0,0,8.15-.4,13.18,13.18,0,0,0,6.52-2.38c7-5.42,6.28-18,.23-23.9-2.69-2.63-7.52-2.89-10.17,0a7.32,7.32,0,0,0,0,10.16,5.55,5.55,0,0,1,.48.5c-.09.08-1.19-1.8-.63-.78.37.69.84,2.13,0-.24a17,17,0,0,1,.76,2.9l-.25-1.91a14.06,14.06,0,0,1,0,3.55l.25-1.91c-.1.67-.35,1.29-.49,2,.36-1.71.73-1.58.33-.88-.74,1.25,1.18-1.31.47-.58-1,1,1.51-1,.64-.47s2-.57.95-.4-2,.39-3,.54l1.91-.26a25.55,25.55,0,0,1-6.24.14l1.91.26a15.28,15.28,0,0,1-2.4-.5l-.76-.25,1,.42c-.37,0-.81-.46-1.13-.64-.62-.35,1.42,1.25.32.22-.27-.25-.51-.53-.76-.79-.49-.52,1.08,1.56.25.28-.24-.37-.45-.74-.65-1.12a7.24,7.24,0,0,0-9.83-2.58c-3.08,2-6.29,3.69-9.28,5.84-1.33,1-2.64,1.91-4,2.83-.84.57-1.69,1.13-2.56,1.66a6.33,6.33,0,0,0-.76.44c1-1,1.9-.62.9-.48l1.91-.26a3.38,3.38,0,0,1-.45,0l1.91.25c-1.15-.2,1.82,1,1,.49s1.7,1.52.86.63c1.8,1.91,1,1.45.72.9L132,38c1.16,2,.59,1.51.35.74-.07-.22-.12-.43-.18-.65a17.27,17.27,0,0,1-.35-1.88l.26,1.91a20.88,20.88,0,0,1,0-5.24l-.25,1.91a11.67,11.67,0,0,1,.26-1.31c.19-.84.73-.79-.47,1,.14-.21.23-.47.36-.69s.22-.36.34-.54q.63-.87-.54.69c.24-.22.43-.5.66-.73s.56-.55.85-.81c1.2-1-1.31.9-.23.16a81.28,81.28,0,0,1,10-5.41,7.22,7.22,0,0,0,3.3-8.11c-.93-2.88-3.71-5.49-6.93-5.28a15.52,15.52,0,0,0-4.38.79,20.13,20.13,0,0,0-2.77,1.23c-.87.48,2.13-.69.92-.44l1.91-.25a2.91,2.91,0,0,1-.59,0l1.91.25c-1.15-.21,1.82,1,1,.49s1.71,1.51.83.63,1,1.63.57.76c-.1-.2-.22-.4-.34-.59-.64-1,.66,1.86.35.85-.09-.29-.2-.57-.28-.86a12.66,12.66,0,0,1-.39-1.85l.25,1.91a14.06,14.06,0,0,1-.05-3.55l-.26,1.91c.08-.61.39-1.26.44-1.86,0,0-.91,1.79-.5,1.19a1.74,1.74,0,0,0,.23-.39c.14-.43-1.11,1.37-.81,1a3.83,3.83,0,0,1,.29-.28c-.06.05-1.86,1.25-.89.75l.63-.35c.2-.11,1.34-.61.14-.11s-.24.11,0,0a17,17,0,0,1,3.54-.83l-1.91.25a17.35,17.35,0,0,1,4.26,0l-1.91-.26a16.31,16.31,0,0,1,1.69.34c.31.08.6.19.91.28,1.15.32-1.24-.64-.5-.23.24.13.48.24.71.37,1.17.69-.1-.33-.32-.33.38,0,2.12,2.39.46.23,1.14,1.48,2.36,2.86,4.29,3.3a7.91,7.91,0,0,0,5.54-.73l1.5-.73c.26-.12.54-.22.78-.35l-.92.38.61-.23a17.45,17.45,0,0,1,3.54-.94l-1.91.25a11.65,11.65,0,0,1,2.95,0l-1.91-.26.84.18c1.17.21-.83-.25-.95-.47,0,.07.27.14.33.18.65.43-1-.85-1-.78a3,3,0,0,0,.58.6s-1.1-1.63-.73-.93c.08.17.2.33.29.49a4.13,4.13,0,0,0,.22.42c.37.55-.64-1.69-.43-1,.1.33.23.64.33,1a15.48,15.48,0,0,1,.46,2.23l-.25-1.91a16.07,16.07,0,0,1,0,4l.26-1.91q-.09.61-.24,1.23c-.05.19-.12.37-.17.57-.18.65-.67.74.44-1-.17.26-.31.56-.46.83-.35.65,1.4-1.47.69-.92-.14.12-.27.26-.42.38a7.19,7.19,0,0,0-2.1,5.08,7.33,7.33,0,0,0,2.1,5.08,7.25,7.25,0,0,0,5.09,2.1A8.41,8.41,0,0,0,169.05,29Z"/><path class="cls-1" d="M28.12,49.4c3.13-1.92,6-4.16,9-6.22,3.41-2.32,7.09-4.09,10.33-6.68,6.65-5.31,9-14.13,7.33-22.28A18.07,18.07,0,0,0,47.37,3,20,20,0,0,0,34.31.13C29.36.71,24,2.24,21.05,6.54a14.89,14.89,0,0,0-2.09,9c.24,4,1.27,7.86,3.94,10.89a9.52,9.52,0,0,0,6.76,3.1,8.16,8.16,0,0,0,3.69-.78c-.06,0,2.46-1.07,1.17-.56-1,.39-.26.1-.05.05.38-.09.75-.19,1.14-.25l-1.91.26a6,6,0,0,1,.73-.07L30.81,14.76c-6.74,3.36-15,6.85-17.48,14.7a21,21,0,0,0-.69,7.46,20.28,20.28,0,0,0,2.3,9A9.54,9.54,0,0,0,28.12,49.4c3.26-1.88,4.68-6.59,2.58-9.84A7.32,7.32,0,0,0,20.87,37c-.61.35-1.15.35,1-.4a2.08,2.08,0,0,1-.48.11l1.91-.26a3.38,3.38,0,0,1-.45,0l1.91.25c-1.15-.2,1.82,1,1,.49s1.7,1.52.86.63c1.8,1.91,1,1.45.72.9L27.05,38c1.16,2,.6,1.51.35.74l-.18-.65a17.27,17.27,0,0,1-.35-1.88l.26,1.91a20.88,20.88,0,0,1,0-5.24l-.25,1.91a11.67,11.67,0,0,1,.26-1.31c.2-.84.73-.79-.47,1,.14-.21.23-.47.36-.69s.23-.36.35-.54c.41-.58.23-.35-.55.69.24-.22.43-.5.66-.73s.56-.55.85-.81c1.2-1-1.31.9-.23.16a82,82,0,0,1,10-5.41,7.21,7.21,0,0,0,3.3-8.11c-.93-2.88-3.7-5.49-6.93-5.28a15.52,15.52,0,0,0-4.38.79,20.13,20.13,0,0,0-2.77,1.23c-.87.48,2.13-.69.92-.44l1.91-.25a2.91,2.91,0,0,1-.59,0l1.91.25c-1.15-.21,1.82,1,1,.49s1.71,1.51.83.63,1,1.63.57.76c-.1-.2-.22-.4-.34-.59-.64-1,.67,1.86.35.85-.09-.29-.2-.57-.28-.86a12.66,12.66,0,0,1-.39-1.85l.25,1.91a14.54,14.54,0,0,1-.05-3.55l-.26,1.91c.08-.61.39-1.26.44-1.86,0,0-.91,1.79-.5,1.19a1.74,1.74,0,0,0,.23-.39c.14-.43-1.1,1.37-.81,1a3.83,3.83,0,0,1,.29-.28c-.06.05-1.86,1.25-.89.75l.63-.35c.2-.11,1.35-.61.14-.11s-.24.11,0,0a17.19,17.19,0,0,1,3.54-.83l-1.91.25a17.35,17.35,0,0,1,4.26,0l-1.91-.26a17.43,17.43,0,0,1,1.88.39c.3.09.59.21.9.29.74.21-1.67-.84-.51-.21.36.2,1.77,1.16.72.34s-.19-.12,0,.09.36.42.57.59c.5.43-1-1.55-.42-.55.11.19.24.37.35.55s.26.49.39.72c.66,1.15-.19-.63-.25-.66.23.12.43,1.3.5,1.57.13.54.23,1.08.32,1.63l-.26-1.91a17.61,17.61,0,0,1,0,4.53l.25-1.91a16.37,16.37,0,0,1-.38,1.95c-.1.4-.25,1.48-.58,1.77l.46-1.11c-.09.19-.18.39-.28.58s-.26.47-.4.7-.27.45-.42.67c-.41.59-1,.89.35-.43-.82.79-1.56,1.62-2.44,2.38-.63.55,1.47-1.07.52-.41l-.86.59c-.55.36-1.12.69-1.69,1-5.08,2.86-9.59,6.5-14.55,9.55-3.2,2-4.71,6.52-2.58,9.83S24.7,51.5,28.12,49.4Z"/><path class="cls-1" d="M148.31,35.85A87.7,87.7,0,0,1,138.16,38a15.91,15.91,0,0,0-4.79,1.37,12,12,0,0,0-4.49,4.31A15.66,15.66,0,0,0,127,53.08a16.92,16.92,0,0,0,4.22,10.28l1.46-11.29A14.27,14.27,0,0,0,126,60c-1.23,3.56-.88,8,.17,11.52l3.3-8.12c-6.13,3.77-11.75,9-14.67,15.65a20.68,20.68,0,0,0-2,9.25,19.8,19.8,0,0,0,2.16,9c2.4,4.25,7.86,6.22,12.21,3.59,2.76-1.67,4.58-4.6,6.82-6.85q1.62-1.64,3.38-3.12l.89-.73c1.11-.92-1.41,1-.25.19.72-.53,1.44-1,2.18-1.54a42.49,42.49,0,0,1,4-2.31c.58-.29,1.17-.56,1.75-.84,1.33-.63-1.64.64-.27.11.5-.2,1-.39,1.49-.57,2.38-.86,4.54-1.56,6.32-3.46a11.81,11.81,0,0,0,3-6,19.71,19.71,0,0,0-1.66-12.12l-2.58,9.83A13.19,13.19,0,0,0,158.79,65a20.49,20.49,0,0,0-1.5-13L153,62.5a11.78,11.78,0,0,0,5-2.83,11.3,11.3,0,0,0,2.6-4.7,18.48,18.48,0,0,0,.34-7.69,17,17,0,0,0-2.27-7c-2.25-3.51-6.16-5.49-10.32-4.41-3.63.95-6.2,5.18-5,8.84a7.32,7.32,0,0,0,8.84,5,1.4,1.4,0,0,1,.28-.06l-1.91.26h.41L149,49.66c1.11.22-1.86-.95-1.09-.48-2-1.19-1.41-1.2-.88-.62-1.72-1.89-.85-1-.35-.21-1.17-1.89-.59-1.51-.33-.73.07.22.14.43.2.65a17.34,17.34,0,0,1,.37,1.88l-.26-1.91a14.62,14.62,0,0,1,0,3.56l.26-1.91a9.43,9.43,0,0,1-.2,1.06,3.13,3.13,0,0,0-.18.57s.93-1.93.47-1.12c-.68,1.17,1.12-1.27.54-.66s1.78-1.19,1-.81l1.44-.6-.88.32a7.28,7.28,0,0,0-4.3,10.55c-.89-2-.22-.49-.08,0a10.28,10.28,0,0,1,.27,1.45l-.25-1.91a16.4,16.4,0,0,1,0,3.64l.26-1.91a9.43,9.43,0,0,0-.29,1.36c0,.45.68-1.27.41-.94a5.17,5.17,0,0,0-.33.58c0-.1,1.27-1.4.62-.81l-.4.39c-.74.75,1.35-.83.62-.49-.24.11-.48.31-.71.44-3.55,2.07-4.27,6.33-2.58,9.83.55,1.13-.48-1.64-.3-.72,0,.23.14.46.2.68a11.78,11.78,0,0,1,.3,1.55l-.25-1.91a13.3,13.3,0,0,1,0,3.09l.25-1.91a16.9,16.9,0,0,1-.39,1.71c-.17.72,1-1.88.29-.8-.39.62,1.45-1.54.52-.68-.32.3,1.84-1,.56-.49l1.24-.54-.77.26c-.75.25-1.5.53-2.25.83a48.88,48.88,0,0,0-9.68,5,58.58,58.58,0,0,0-8.32,6.91c-1.1,1.11-2.15,2.26-3.17,3.44-.46.54-.9,1.09-1.37,1.62-.9,1,1-.68.71-.51-.61.36,2.17-.68,1-.46l1.91-.26a2,2,0,0,1-.42,0l1.91.26c-.86-.21,2,1,1.21.51,1.48.89,1.54,1.27,1,.71,1.37,1.43,1.11,1.5.73.87s-.17-1.11.38,1a24.3,24.3,0,0,1-.68-2.8l.26,1.91a16.8,16.8,0,0,1-.06-4.25L127,87.81a8.4,8.4,0,0,1,.29-1.41c.15-.48.39-.94.52-1.43-.53,2-.39.91-.12.34A25.33,25.33,0,0,1,129,83c.27-.42.56-.82.84-1.24.74-1.11-1.16,1.41-.11.13a29.71,29.71,0,0,1,3.7-3.74c.34-.28.7-.55,1-.84-1.64,1.47-.53.42-.08.09.79-.55,1.59-1.08,2.41-1.58a7.33,7.33,0,0,0,3.3-8.11,18.54,18.54,0,0,1-.49-2.21l.26,1.91a15,15,0,0,1-.05-4l-.26,1.91c.09-.52.29-1,.38-1.53-.28,1.53-.69,1.45-.26.69.16-.28.71-1-.12.07s.14,0,.42-.31c.57-.55-1.61,1.1-.72.58l.68-.41c4.22-2.34,4.47-7.94,1.46-11.28-.89-1,.81,1.47.14.19s.51,1.61.18.49a16.57,16.57,0,0,1-.56-2.39l.26,1.91a13.79,13.79,0,0,1,0-3.21l-.26,1.91c.09-.6.29-1.16.4-1.75-.23,1.3-.67,1.56-.27.72s-1.44,1.54-.41.55c.89-.84-1.49.93-.52.36s-1.68.47-.91.39c.61,0,1.27-.25,1.89-.35a95.75,95.75,0,0,0,10.86-2.31c3.6-1.08,6.23-5.08,5-8.84S152.17,34.7,148.31,35.85Z"/><path class="cls-2" d="M71,41.43c-9.49,6-19.1,12.52-26.18,21.32A41.86,41.86,0,0,0,36.6,78a32.14,32.14,0,0,0-1.1,8.57c0,3.47.65,7.38,3.24,10a6.64,6.64,0,0,0,10.45-1.85A7.79,7.79,0,0,0,49.92,92c-.17,1.26.07-.19.15-.49s.28-.83.43-1.25c-.34,1-.1.21,0,0s.28-.58.44-.86a22.53,22.53,0,0,1,1.71-2.61c.54-.76-.49.57.12-.16.18-.21.36-.44.54-.66.45-.52.91-1,1.38-1.54a66.37,66.37,0,0,1,5.62-5.25c1-.87,2.08-1.72,3.15-2.54l.35-.27.82-.61,1.91-1.4c2.11-1.53,4.27-3,6.44-4.43Q75.93,68,78.9,66.12C80.66,65,82.32,64,83.27,62c2.26-4.59,1.22-10.43-.73-14.94S76,38.44,71,41.43c-4,2.37-.36,8.58,3.63,6.21.67-.41-.21,0-.22,0s.42-.13.47-.14c.54-.1-.51.07-.49.06.73-.05-.3.16-.35-.09,0,0,.41.09.45.11.49.18-.43-.18-.43-.19a2.09,2.09,0,0,1,.43.24c.44.37-.69-.7,0,0,.21.22.42.46.64.68.49.5-.44-.73-.08-.1a3.5,3.5,0,0,0,.23.35c.23.36.44.74.64,1.13.07.13.13.27.2.41.45.9-.11-.4.09.21.27.8.55,1.59.75,2.42.11.43.19.87.27,1.31,0,.08.14.88,0,.25s0,.37,0,.48a19.42,19.42,0,0,1,0,2.53c0,1,.19-.65,0,.31-.09.38-.22.76-.31,1.15-.16.66.44-.73.07-.18a3,3,0,0,0-.26.46c-.23.52.19-.66.26-.31,0,.06-.3.33-.34.36-.51.4.79-.43.21-.16a3.52,3.52,0,0,0-.38.24L75.17,60c-1.77,1.11-3.54,2.24-5.29,3.39-4.22,2.76-8.34,5.67-12.29,8.8A59.78,59.78,0,0,0,47.35,82,24.46,24.46,0,0,0,44,87.25a14.3,14.3,0,0,0-1,2.84c0,.17-.07.34-.1.51l0,.21c-.14,1.1-.17,1.27-.07.51-.3.69.29,0-.06.15s.92-.37.05-.12c.34-.09.88,0,.29-.15.15,0,.33,0,.49.06l.23.2c-.25-.27-.23-.23,0,.1a9.42,9.42,0,0,1-.51-.87c-.34-.64-.16-.35-.1-.2-.15-.39-.25-.79-.36-1.18a9.36,9.36,0,0,1-.18-1.69,27.62,27.62,0,0,1,.08-3.75c0-.33.06-.67.11-1,0,.15-.12.67,0,0s.25-1.41.42-2.11a27.9,27.9,0,0,1,1-3.31c.11-.31.23-.61.35-.92.37-1-.18.38.08-.2s.59-1.3.92-1.93a42.19,42.19,0,0,1,3.94-6.2c-.44.57.25-.31.28-.34.21-.27.43-.53.65-.79.44-.52.89-1,1.34-1.55,1-1.11,2-2.18,3.12-3.22a84.5,84.5,0,0,1,6.56-5.68l.54-.42.64-.49,1.65-1.21c1.18-.86,2.37-1.69,3.57-2.51,2.19-1.49,4.42-2.92,6.66-4.32A3.6,3.6,0,1,0,71,41.43Z"/><path class="cls-2" d="M46.48,61.44c5.51-3.32,4.08-11.49,1-16-1.76-2.54-4.32-4.71-7.58-4.68-3.57,0-6.88,3.17-9.52,5.25-1.51,1.18-3,2.41-4.43,3.66l-1.46,1.24c-.15.13-.32.24-.46.38.84-.86.66-.43.36-.31l1.81-.49c.74,0,.27-.08-.21-.23l-1.08-.33c-.6-.18-1.21-.35-1.81-.51a27.92,27.92,0,0,0-4.15-.81,6.39,6.39,0,0,0-6.13,2.9c-2.47,3.82-1.06,9.45.31,13.41L14,61.44A49.31,49.31,0,0,0,5.66,75.55C3.9,80.34,2.76,85.89,4.38,90.89a11.78,11.78,0,0,0,4.56,6.32,5.83,5.83,0,0,0,8.27-1.63c2.26-3.26,3.85-7.06,5.8-10.5a68.18,68.18,0,0,1,4-6.34l.51-.7c.15-.2.14-.18,0,.06l.31-.39c.38-.47.77-.92,1.18-1.36s.72-.75,1.1-1.11l.56-.5c.67-.62-.25.15.3-.25l-4.36-.56c2.35,3,7.11,5.45,10.34,2.16a12.64,12.64,0,0,0,2.75-5.51,18.62,18.62,0,0,0,.54-6.52L39.13,66.6a39.75,39.75,0,0,1,7.35-5.16,3.6,3.6,0,0,0-3.63-6.21,53.42,53.42,0,0,0-6.33,4.2,20.52,20.52,0,0,0-2.47,2.09c-1.32,1.43-.91,3-1,4.71a9.51,9.51,0,0,1-.48,2.84,9.68,9.68,0,0,1-.41,1.18,4.94,4.94,0,0,0-.53,1,1.47,1.47,0,0,1,1-.68,1.6,1.6,0,0,1,.84,0c-.38-.12-.37-.1,0,0a4.37,4.37,0,0,1-.55-.32l-.06,0c-.17-.15-.33-.3-.48-.46a10.48,10.48,0,0,1-.82-.93,3.58,3.58,0,0,0-4.35-.56c-6.92,5.08-10.61,13.44-14.61,20.78-.39.72-.81,1.42-1.2,2.14s-.21.27.29.07a2,2,0,0,1,1.07-.08c-.66-.06.4,0,0,0s.4.45-.11-.08c-.14-.15-.3-.29-.44-.44s-.27-.3-.4-.46c.48.6.06,0,0-.12s-.24-.4-.35-.61c-.28-.56.2.75-.12-.3a16.33,16.33,0,0,1-.45-1.8c.09.5-.07-.71-.08-.94a17.2,17.2,0,0,1,0-1.9c0-.25,0-.5.05-.75,0-.1.09-.72,0-.14A16.08,16.08,0,0,1,11.23,82c.29-1.2.64-2.39,1-3.56a24.77,24.77,0,0,1,1.16-2.91,42.55,42.55,0,0,1,3.66-6.25c.64-.92,1.23-1.7,1.9-2.54A4,4,0,0,0,20.05,63c-.15-.59-.4-1.18-.57-1.77a23.91,23.91,0,0,1-.7-3.15c.1.69,0-.45,0-.68,0-.51,0-1,0-1.51,0-.83-.2.42,0,0a2.1,2.1,0,0,0,.15-.61c0-.21.31-.62-.1.21l.22-.38c-.42.69-.35.43-.15.25l-.4.31c.25-.14.23-.15-.06,0s-.27.09.09,0,.15,0-.36,0h.53c-.43-.05-.4-.05.07,0l.74.15c.51.1,1,.22,1.51.35,1.42.37,2.81.94,4.24,1.26,2.07.47,3.35-.71,4.79-1.93a76.8,76.8,0,0,1,9-7l.73-.45L40,48c.34-.17.24-.15-.29.09a1.51,1.51,0,0,1,.38-.12c.72-.11-.93,0-.21,0,.92,0-.76-.19.15,0s-.62-.3.2.1c0,0,.34.22.34.23s-.62-.58-.08,0l.76.81c.51.54-.27-.52-.07-.09.1.21.28.4.4.6.21.35.41.7.59,1.07.09.18.17.37.25.56-.22-.51-.14-.38,0,.06s.25.78.35,1.18.15.79.24,1.18c-.23-1.05,0,.1,0,.43v.44c0,.84.13,0,0-.1a3,3,0,0,1-.25,1c.69-.08.09-.83.1-.25,0,.21-.55.61-.08.18s.08-.11,0,0,.78-.49.06-.06a3.6,3.6,0,1,0,3.63,6.21Z"/><path class="cls-2" d="M116.28,41.47c-8-2.21-16.32.83-22.85,5.4S81,57.63,78.9,65.56c-1.26,4.8-1.19,10.32,1.43,14.67l1.29-4.92a17.56,17.56,0,0,0-6.73,8.92c-1,2.94-.41,5.78.79,8.55,1,2.33,2.78,4.88,5.39,5.55,3.21.83,5.8-1.44,6.9-4.27.13-.35.23-.71.35-1.06a3.4,3.4,0,0,0,.12-.34c.17-.53-.11.36-.19.45a3.54,3.54,0,0,0,.36-.73,6.56,6.56,0,0,1,.52-.8s-.65.76-.15.21c.15-.16.29-.33.44-.48.31-.33.66-.64,1-.94s.49-.37,0-.05l.77-.55A32.09,32.09,0,0,1,95,87.59c1.43-.71,3.07-1.19,4.42-2a8.58,8.58,0,0,0,3.78-6.66,10.91,10.91,0,0,0-10.71-12l3.1,5.41a19.59,19.59,0,0,1,4-4.41l-6-1.58c1.14,5.59,4.31,10.28,9.8,12.31,5.29,1.95,12,1.81,16.7-1.48,7.68-5.33,9.83-16.48,6.8-25-1.8-5.06-5.39-9.1-10.62-10.69a3.59,3.59,0,1,0-1.91,6.93c.22.07,1.53.62.71.22.32.16.65.32,1,.5a11.56,11.56,0,0,1,1.1.72c-.71-.51.25.26.46.46s.51.62.79.87-.46-.69,0,0l.3.43q.28.45.54.9c.11.2.22.39.31.59s.43.91.22.42.23.64.3.83c.13.38.25.78.35,1.17s.2.8.28,1.21.22,1.6.13.68a30.8,30.8,0,0,1,0,5.26c.07-1,0,.29-.1.53-.07.4-.15.79-.25,1.19-.21.84-.5,1.66-.79,2.48.27-.75,0,0-.15.29s-.33.65-.52,1-.39.59-.57.89c-.27.46,0,0,0,0-.23.29-.47.57-.73.84A10.82,10.82,0,0,1,116.44,71c.45-.35-.52.32-.69.42s-.5.28-.75.41-.82.35-.23.12a12.67,12.67,0,0,1-1.62.5l-.67.14c-1,.24.4,0-.25,0s-1.06.08-1.59.08-1.1,0-1.64-.09.83.17-.35,0l-1.13-.22c-.64-.14-1.25-.33-1.87-.52s-.31-.1-.14,0a7.89,7.89,0,0,1-.92-.46c-.19-.11-.37-.24-.57-.35-.69-.38.23.27-.3-.21a11.52,11.52,0,0,1-1.2-1.22c-.37-.44.4.69-.09-.13-.16-.27-.33-.52-.49-.79s-.7-1.48-.44-.83a20.19,20.19,0,0,1-1-3.39A3.56,3.56,0,0,0,98,61.92a3.74,3.74,0,0,0-3.49.92,26.15,26.15,0,0,0-5.14,5.86c-1.58,2.38.53,5.3,3.1,5.41.18,0,1.12.15.2,0,.22,0,.45.08.67.14s.42.13.63.19c.76.23-.55-.43.06,0,.23.18,1.17,1,.47.25.22.23,1.11,1.33.54.47.22.32.41.63.6,1s.29.89,0,0c0,.14.11.28.15.42s.34,1.44.23.82,0,.06,0,.17,0,.5,0,.75a2.55,2.55,0,0,0,0,.53c-.23-.18.23-.9,0-.15,0,.12-.08.26-.11.38-.19.83,0-.2.08-.13a2.14,2.14,0,0,1-.22.42c-.41.55.23-.15.18-.19s-.35.37-.37.4c-.39.48.63-.56.14-.13-.07.06-.67.35-.1.08-.42.2-.87.36-1.3.54-.74.32-1.48.65-2.22,1a38.54,38.54,0,0,0-3.63,2c-3,1.88-5.57,4.22-6.87,7.55-.12.31-.22.62-.33.94,0,.15-.1.29-.14.44-.19.66.54-.9.16-.38-.1.14-.21.35-.31.5.44-.7-.29,0,.53-.5-.47.3.33-.13.38-.14.7-.2.39-.16,1.1,0-.62-.14.71.31.29.12-.58-.28.12.16.18.15-.1,0-.39-.39-.46-.46-.48-.42.32.62,0,0-.24-.45-.54-.87-.77-1.33-.08-.17-.38-1-.06-.1-.09-.25-.19-.49-.27-.74-.15-.48-.24-1-.37-1.45-.21-.75,0,.81,0,.07,0,0,0-.59,0-.59l-.08.6c0-.26.1-.52.16-.78A11,11,0,0,1,82,85.77c-.22.56.28-.55.27-.53.18-.33.37-.66.58-1A8.41,8.41,0,0,1,84,82.75c.22-.24.45-.47.67-.7l.56-.53c-.34.21-.34.21,0,0a3.66,3.66,0,0,0,1.29-4.92c-.2-.33-.38-.66-.55-1s0,0,0,0l-.18-.54a13.15,13.15,0,0,1-.36-1.37c0-.19-.07-.38-.1-.57-.1-.62,0,.44,0-.19a17.79,17.79,0,0,1,0-2.53,10.25,10.25,0,0,1,.32-2.18,24,24,0,0,1,.72-2.51,13.22,13.22,0,0,1,.91-2.1,21.45,21.45,0,0,1,1.3-2.22l.33-.49c0-.06.52-.71.27-.38-.11.14.39-.49.52-.64a39.14,39.14,0,0,1,3.12-3.32c.56-.54,1.14-1.06,1.74-1.57l1-.82.43-.35c-.29.23.07,0,.17-.12a45,45,0,0,1,4.3-2.77c.71-.4,1.45-.78,2.19-1.13l.69-.31c-.08,0-.37.16,0,0l1.22-.46a25.47,25.47,0,0,1,2.84-.8c.42-.1.84-.17,1.26-.24s0,0-.06,0l.89-.08a24,24,0,0,1,2.68,0l.23,0,.41.06c.53.1,1,.23,1.57.37C118.83,49.64,120.74,42.71,116.28,41.47Z"/><path class="cls-2" d="M111.61,57.26a4.71,4.71,0,0,1-.93.52l.86-.36a9.13,9.13,0,0,1-2.06.51l1-.12a14.57,14.57,0,0,1-3.79,0l1,.13a8.45,8.45,0,0,1-1.8-.44v6.93a25.77,25.77,0,0,1,5.52-1.5l-1,.13a12.24,12.24,0,0,1,3.2,0l-1-.13a7.6,7.6,0,0,1,.83.16l-1.58-6a7.92,7.92,0,0,1-.7.6l.73-.56a2.83,2.83,0,0,1-.28.2A4,4,0,0,0,110,59.41a3.71,3.71,0,0,0,.36,2.77,3.66,3.66,0,0,0,2.15,1.65,3.53,3.53,0,0,0,2.77-.36,17.16,17.16,0,0,0,1.7-1.36,3.63,3.63,0,0,0-1.59-6c-3.8-.94-7.87,0-11.45,1.39A4.06,4.06,0,0,0,102,58.78a3.48,3.48,0,0,0-.77,2.17,4.45,4.45,0,0,0,.49,1.82,3.85,3.85,0,0,0,2.15,1.65,12.05,12.05,0,0,0,3,.6,10.52,10.52,0,0,0,1.68.09,17.21,17.21,0,0,0,3.84-.45,8.19,8.19,0,0,0,2.78-1.19,3.89,3.89,0,0,0,1.65-2.15,3.59,3.59,0,0,0-2.51-4.42A3.57,3.57,0,0,0,111.61,57.26Z"/><path class="cls-2" d="M59.74,45.58c2.14-1.47,4.26-3,6.33-4.57q1.79-1.36,3.55-2.76c.68-.53-.41.3.07-.06.32-.23.64-.48,1-.72,3-2.29,6.18-4.5,9.36-6.61,1.49-1,3-2,4.56-2.86a15.28,15.28,0,0,0,3.55-2.26c2.24-2.25,2.58-5.88,2.23-8.87a18,18,0,0,0-3.73-9.51,7.9,7.9,0,0,0-3.87-2.6,7.79,7.79,0,0,0-5.55.79,67.89,67.89,0,0,0-11.91,7,68.62,68.62,0,0,0-11.14,9.77,23.74,23.74,0,0,0-4.68,6.79A15.24,15.24,0,0,0,49,37.86c1,4.65,5.25,11.07,10.72,7.72a3.59,3.59,0,0,0-3.63-6.2c-.62.38,0,0,.12,0a3.57,3.57,0,0,1,1,0c.1,0,.74.41.22.08,0,0,.45.47.23.18a2.67,2.67,0,0,0-.37-.38c-.35-.27.23.49.05.08s-.45-.72-.63-1.08c-.07-.13-.47-1-.25-.5s-.08-.23-.12-.35A12.43,12.43,0,0,1,56,36c-.05-.25-.11-.5-.14-.76.07.49,0-.23,0-.39a6.23,6.23,0,0,1,1.13-4.48c.25-.38.52-.75.8-1.11-.35.46.33-.41.43-.53.66-.81,1.36-1.59,2.09-2.35a66,66,0,0,1,19.31-14l1.26-.59c.7-.32-.49.06.29-.09.56-.1-1,0-.2,0s-.89-.29-.07,0c.55.18-.8-.42-.16-.07s0,0,0-.07a5.11,5.11,0,0,0,.48.45c.09.09.17.2.26.29.43.41-.32-.54-.13-.17s.59.9.83,1.38c.12.24.44,1.16.11.19.1.29.23.58.33.88a16.66,16.66,0,0,1,.5,1.84c.06.28.11.55.16.83s.08.67,0,.11,0,.15,0,.22c0,.56.06,1.12,0,1.69a3.52,3.52,0,0,0-.06.75c-.2-.12.18-.85,0-.35-.05.16-.07.33-.11.49s-.14.42-.18.63c-.11.47.37-.79,0-.05s.35-.35.08-.07c-.53.56.56-.22.13-.06-2.55,1-5,2.84-7.2,4.34-6.88,4.59-13.09,9.8-19.86,14.44a3.69,3.69,0,0,0-1.29,4.92A3.63,3.63,0,0,0,59.74,45.58Z"/><path class="cls-2" d="M120.39,35.94A19.4,19.4,0,0,0,126,20.27c-.6-5.27-3.23-11.21-8.89-12.56l2.15,1.65c-3.56-7.59-12.51-5.55-18.56-2.65a24.51,24.51,0,0,0-7.21,5,23.75,23.75,0,0,0-4.76,7.53,20.92,20.92,0,0,0,.37,17.18,14.6,14.6,0,0,0,14.66,8,28.41,28.41,0,0,0,16.68-8.42c3.26-3.29-1.82-8.37-5.08-5.08-.43.43-.87.85-1.33,1.25-.26.23-.53.44-.8.67,0,0-.44.34-.11.09s-.39.28-.38.27A28.73,28.73,0,0,1,109,35.39l-.87.42c-.09,0-.71.32-.31.15l-.17.07c-.71.26-1.41.52-2.14.72s-1.32.32-2,.44.59,0,0,0l-.46,0c-.4,0-.81,0-1.21,0s-.6,0-.91,0-.64-.15.07,0l-.44-.08c-.29-.07-.58-.13-.87-.22l-.56-.19c-.5-.15.5.26,0,0a11.35,11.35,0,0,1-1.71-1c.53.4-.24-.25-.38-.39a11.13,11.13,0,0,1-.8-.88c.37.44-.23-.33-.33-.47-.2-.32-.39-.64-.57-1s-.29-.57-.42-.86c.27.61-.13-.4-.2-.63a19.63,19.63,0,0,1-.49-2c-.08-.42,0,.11,0,.17l-.06-.64c0-.38,0-.75,0-1.13,0-.7,0-1.4.09-2.1,0-.14.11-.7,0,0,0-.16,0-.33.08-.49.09-.42.17-.85.27-1.27a20,20,0,0,1,.62-2c.07-.19.36-.91.13-.36.17-.4.36-.8.56-1.19A19.58,19.58,0,0,1,97,18.65c.21-.32.42-.62.64-.93-.37.51.21-.24.34-.39a15.27,15.27,0,0,1,1.44-1.46c.09-.09.86-.73.59-.52s.09-.06.13-.09l.64-.42a21.41,21.41,0,0,1,8.88-3.65c-.53.08.35,0,.5,0h.54c.09,0,.82.05.38,0-.28,0,.54.13.71.18.41.13,0,0-.07,0s.73.51.45.27.6.84.18.2c.19.28.34.58.51.88a3.71,3.71,0,0,0,1.86,1.78c.11,0,1.48.52.79.22.22.1,1.11.68.6.28a7.91,7.91,0,0,1,.92.91c-.39-.44.2.3.32.48.23.38.44.78.64,1.19s0,0,0-.07c.1.26.19.53.28.8s.23.76.32,1.14a9.62,9.62,0,0,1,.25,1.3c0-.1,0-.49,0,0s.06.66.07,1a12,12,0,0,1-3.56,9.18,3.59,3.59,0,1,0,5.08,5.08Z"/><path class="cls-2" d="M105.35,27.69a31,31,0,0,1,2.89-1.43l-.86.36a19.28,19.28,0,0,1,4.08-1.19L107,22.92A13.66,13.66,0,0,0,108,25l.56-4.36c-.27.25-.54.49-.82.72l.73-.56a14.42,14.42,0,0,1-3,1.62l.86-.36A17.88,17.88,0,0,1,102,23.36l1-.13a9.89,9.89,0,0,1-2.43.05l.95.13-.3-.05,1.58,6a7.55,7.55,0,0,1,.74-.64l-.73.56a24.76,24.76,0,0,1,2.6-1.59,3.59,3.59,0,1,0-3.62-6.2,17.5,17.5,0,0,0-4.07,2.79,3.64,3.64,0,0,0-.92,3.5,3.52,3.52,0,0,0,2.51,2.51,15.52,15.52,0,0,0,7.78-.8,18.18,18.18,0,0,0,6.58-3.74,3.64,3.64,0,0,0,.56-4.35,8.72,8.72,0,0,1-.42-.87l.36.86L114,21a3.77,3.77,0,0,0-1.65-2.15,4.05,4.05,0,0,0-2.76-.36,25.28,25.28,0,0,0-7.82,3,3.61,3.61,0,0,0-1.29,4.91A3.65,3.65,0,0,0,105.35,27.69Z"/><path class="cls-2" d="M166.51,26.42c2.22-1.76,2.92-4.94,3.13-7.6a17.41,17.41,0,0,0-1.15-7.76c-1.21-3-3.26-5.26-6.55-5.83-4.6-.8-8.91.94-12.95,3l4.92,1.29a13.68,13.68,0,0,0-5.66-4.55,18.16,18.16,0,0,0-6.43-1.34,19.77,19.77,0,0,0-6.48.91A13.36,13.36,0,0,0,130,7.25c-2.06,2.05-2.63,5.22-2.51,8A14.58,14.58,0,0,0,129.76,23a5.73,5.73,0,0,0,7.63,2.27c.22-.11.6-.33.72-.38a7,7,0,0,1,.78-.24c.67-.21-.18,0,.53-.08l-1.81-6.7c-4.32,2.16-9,4.09-12.54,7.51a12.94,12.94,0,0,0-3.9,9.59c-.06,3.07.29,6.7,2,9.34A6,6,0,0,0,128,47.23c2.25,0,4.15-1.42,5.92-2.62,2.07-1.39,4.06-2.9,6.11-4.32,2.42-1.67,5-3,7.5-4.58l-4.92-1.28a14.45,14.45,0,0,0,4.56,5.17,15.35,15.35,0,0,0,7,2.29,27.94,27.94,0,0,0,7.19-.27,10.77,10.77,0,0,0,5.3-1.74c5.36-4.1,4.34-14.17-.13-18.54a3.6,3.6,0,1,0-5.09,5.08c.08.07.71.79.34.32s.14.24.2.34c.15.25.27.52.41.78-.27-.51-.11-.29,0,.12a12.29,12.29,0,0,1,.43,1.58c.09.4.13.76.06.14,0,.28,0,.56.07.84a15.13,15.13,0,0,1,0,1.78c0,1,.15-.47,0,.22-.06.24-.1.49-.17.74s-.18.46-.24.69c.21-.8.13-.3,0,0-.29.49-.28.3.06,0-.11.1-.77.65-.25.3.69-.48-.71.28.07-.05s-.48.08-.56.09c-.39.08-.77.16-1.16.22-.09,0-1.13.18-.66.12a23.89,23.89,0,0,1-5.21.15,10.52,10.52,0,0,1-3.67-1.16,7.34,7.34,0,0,1-1.2-1.11c-.49-.51,0,.13-.33-.43s-.52-.83-.75-1.27a3.63,3.63,0,0,0-4.92-1.29c-1.92,1.24-4,2.27-5.91,3.52-1.6,1-3.15,2.16-4.69,3.28-1.71,1.22-3.43,2.43-5.22,3.53-.25.15-1.41.68-.25.22a1.87,1.87,0,0,1-.32.08c-.09,0,.93-.1.57-.09a2.39,2.39,0,0,1,1,.27c-.58-.32.61.67.07,0,.92,1.1-.31-.23-.2-.5,0,0,.28.82.14.29,0-.14-.1-.27-.14-.41-.1-.32-.19-.65-.26-1s-.11-.55-.17-.82,0-.32-.07-.48c.16.9,0,.43,0,.22,0-.66-.11-1.32-.12-2s0-1.19.06-1.79c0-.13.15-1.17,0-.5s.06-.32.1-.49.12-.39.16-.59c.15-.68-.36.58-.12.24s.43-.75.65-1.1c.07-.11.42-.52,0-.05.17-.2.36-.41.54-.6.35-.37.72-.7,1.1-1,0,0,.44-.36.17-.15s.43-.31.49-.35a31.79,31.79,0,0,1,2.88-1.77c2.22-1.23,4.53-2.3,6.8-3.43,3.14-1.57,1.69-6.92-1.82-6.7a11.81,11.81,0,0,0-3.63.75,12.35,12.35,0,0,1-1.87.86c.6-.23.72-.29.38-.18.7-.07.87-.09.5-.07s-.2,0,.52.08c-.34-.1-.19,0,.45.22-.73-.38.43.55.09.12-.55-.71-.13.13,0,.07a4.29,4.29,0,0,1-.31-.49c-.15-.26-.69-.92-.08-.07a2.92,2.92,0,0,1-.29-.83c-.19-.6-.29-1.22-.42-1.83.22,1.07,0,0,0-.25s0-.64-.05-1,0-.63,0-.95c0-.15,0-.3,0-.46-.08.55-.1.68-.06.4s.16-1.45.39-1.52c-.24.55-.29.66-.13.33.06-.11.11-.21.18-.32.19-.51-.65.64,0,.06.27-.23.16-.15-.35.27.2-.13.41-.25.62-.36s1.27-.63.8-.43a15.18,15.18,0,0,1,2.72-.81,14.24,14.24,0,0,1,4.83,0c.5.11,1,.26,1.46.41s.48.18.2.06c.24.11.47.22.7.35a3.4,3.4,0,0,1,.88.58c.11.11.94,1,.72.7a3.72,3.72,0,0,0,4.92,1.29c2.46-1.23,5.23-2.63,7.94-2.17-.32-.05.71.22.71.22,0-.16-.88-.29-.25-.09s-.19-.16-.17-.17.4.4.44.43c.45.37-.23-.47-.09-.12.08.2.25.39.35.58s.17.36.27.53c-.44-.69-.09-.24,0,.06a11.16,11.16,0,0,1,.37,1.25c.07.26.12.53.17.79s.09,1.06,0,.12a21.33,21.33,0,0,1,.06,3c0,.12-.12.88,0,.3s0,.15-.07.27c-.08.42-.29.85-.35,1.27s.38-.66.06-.14a6,6,0,0,0-.31.55c-.21.49.5-.39.07-.11-.14.1-.27.26-.42.38-1.52,1.2-1.25,3.82,0,5.08C162.93,27.92,165,27.62,166.51,26.42Z"/><path class="cls-2" d="M26.31,46.29c3.12-1.92,6-4.15,9-6.21S42,36.34,44.94,34a18.88,18.88,0,0,0,6.38-19,14.44,14.44,0,0,0-5.91-9c-3.3-2.23-7.71-2.76-11.58-2.25-3.46.46-7.64,1.61-9.73,4.64a11.71,11.71,0,0,0-1.54,7.2c.2,2.9.91,6.19,3,8.36a5.94,5.94,0,0,0,4.26,1.92,6.23,6.23,0,0,0,2.67-.69c.32-.15.58-.31.83-.41s.4-.11.59-.17c1-.29-.4,0,.53-.08l-1.81-6.7c-5.72,2.85-13.69,5.83-15.83,12.55a18.07,18.07,0,0,0-.56,6.51,16,16,0,0,0,1.82,7.15,5.87,5.87,0,0,0,8.26,2.22c4-2.31.39-8.52-3.63-6.2-.84.49.51-.14,0,0s.91,0,.33-.07c.71.13.89.14.53.06.63.29.78.35.46.18-.51-.3.66.6.25.19s.46.85.05.06c-.09-.17-.17-.34-.27-.5-.3-.46.25.84,0-.09-.07-.21-.14-.42-.2-.63-.14-.54-.23-1.08-.33-1.62s-.05-.32,0,.22l-.06-.49c0-.25,0-.5-.05-.74a30.34,30.34,0,0,1,.08-3.44c0-.25-.18.89,0,0,.05-.21.08-.42.14-.63a2.84,2.84,0,0,0,.17-.55c.13.18-.52,1,0,0a10.09,10.09,0,0,1,.61-.94c-.43.58.27-.28.37-.39a10.64,10.64,0,0,1,.84-.81c.17-.16.35-.3.52-.45q-.33.25,0,0c3.07-2.29,6.69-3.81,10.11-5.51,3.14-1.57,1.69-6.92-1.82-6.7a13,13,0,0,0-2.83.45,14,14,0,0,0-1.66.66c-.18.08-.83.54-1,.5l.54-.23c-.37.1-.2.09.49,0-.4,0-.61-.15.37.09-.29-.07-.39-.22.45.22-.73-.38.43.55.09.12-.67-.87.21.57-.21-.25a5.21,5.21,0,0,0-.28-.52c-.4-.61.23.8,0,.08-.1-.36-.24-.71-.34-1.07s-.35-2-.23-.92a19.22,19.22,0,0,1-.09-2.63c0-.28-.1-1,0,.05a2.13,2.13,0,0,1,.12-.65c0-.2.11-.4.15-.6.21-.9-.29.37,0-.05a1.54,1.54,0,0,0,.23-.39c0-.37-.59.69-.2.25s-.22.09-.23.15c0-.13.82-.48.94-.54s1.07-.49.48-.25c.34-.14.7-.26,1.06-.37a15.74,15.74,0,0,1,2.23-.54c1.15-.21-.57,0,.59-.07l1.17-.05c.39,0,.78,0,1.16,0,0,0,1.23.15.59,0a9.23,9.23,0,0,1,3.65,1.29c.82.46-.33-.4.33.25l.7.7c.69.66-.26-.51.25.3.15.23.3.46.43.69s.26.48.39.73c.47.88-.15-.61.15.35.23.75.42,1.48.59,2.24.24,1,0-.69.06.35,0,.33.05.65.07,1,0,.53,0,1.07,0,1.6,0,.31,0,.62-.08.93.08-.69-.1.48-.1.5a17.07,17.07,0,0,1-.67,2.32c-.23.67-.08.2,0,.06-.14.29-.29.58-.44.87a14.14,14.14,0,0,1-1,1.6c.47-.61-.2.2-.25.26-.22.24-.44.47-.67.7a16.71,16.71,0,0,1-1.49,1.3c.58-.44-.33.23-.36.25-.39.27-.78.52-1.18.77-.78.48-1.6.91-2.4,1.37q-2.31,1.31-4.5,2.82c-2.92,2-5.72,4.14-8.74,6a3.59,3.59,0,0,0,3.63,6.2Z"/><path class="cls-2" d="M149.27,39.32a87.87,87.87,0,0,1-10.16,2.18,13.89,13.89,0,0,0-3.92,1,8.27,8.27,0,0,0-3.2,3c-2.79,4.55-1.73,11.46,1.74,15.3l.73-5.64c-5.6,3.11-6.48,9.7-4.79,15.42l1.65-4.06c-5.64,3.47-10.71,8.2-13.38,14.36-1.92,4.45-2.35,10.21.12,14.59a5.3,5.3,0,0,0,7.3,2.31A10.78,10.78,0,0,0,128,95.25q1.64-1.94,3.42-3.74a40.85,40.85,0,0,1,14.74-9.74c1.76-.63,3.42-1.1,4.73-2.53A8.69,8.69,0,0,0,153,74.8a15.63,15.63,0,0,0-1.3-9.36l-1.29,4.92A9.73,9.73,0,0,0,155.33,64a16.45,16.45,0,0,0-1.14-10.26L152,59a6.69,6.69,0,0,0,5.06-5,15.14,15.14,0,0,0,.27-6.25c-.54-4.09-2.92-9.8-8.1-8.44a3.59,3.59,0,1,0,1.91,6.93c.46-.12-.53,0-.54,0,.46,0-.56-.08-.56-.08.44.1-.47-.21-.48-.22.5.28-.58-.5-.31-.26.53.46,0-.07,0-.11a4.68,4.68,0,0,0,.38.64c.07.1.33.52,0,0s0,0,.05.17.19.57.27.86.15.61.21.92l.09.47c.14.66,0-.56,0-.11,0,.65.1,1.29.08,1.94,0,.3-.06.62,0,.93s.18-.81,0-.19c0,.14,0,.28-.08.42a3.81,3.81,0,0,1-.22.78c-.06,0,.44-.79.14-.35a1.87,1.87,0,0,0-.17.31c-.19.51.47-.53.22-.27s-.36.21.07,0c.9-.48-.51.24.41-.24s-.52.18-.59.2A3.67,3.67,0,0,0,148,57.39a9.18,9.18,0,0,1,.49,2.26c0,.57,0,1.14,0,1.71l-.06.73c.06-.4.05-.39,0,0-.05.19-.47,1.36-.08.52-.1.21-.74,1.09-.15.41a5.9,5.9,0,0,1-.8.78c.64-.52-.46.25-.6.33a3.69,3.69,0,0,0-1.29,4.92c.44.89-.08-.6.06.14,0,.14.1.3.14.44.13.45.17.93.31,1.38s-.06-.89,0,0c0,.23,0,.47.05.7s0,.48,0,.71-.07,1.21,0,.65-.06.29-.07.34c-.05.22-.12.43-.17.65-.17.67.09.1,0,0l-.12.22c-.21.33-.17.29.14-.12,0,0-.34.39-.33.35.28-.83.45.11-.08,0,0,0,1.06-.36,0,0-.45.13-.89.3-1.33.46a47.6,47.6,0,0,0-14.92,8.89,57.7,57.7,0,0,0-5.71,5.78c-.43.49-.84,1-1.27,1.51-.24.27-1.2,1-.3.41-.56.37.72-.22.31-.11s1-.06.46-.07l.68.08c.64.3.8.36.49.18.22.14.69.62.27.15,1,1.1-.11,0,0-.21-.06.13.26.83,0,.06,0-.15-.1-.29-.14-.44a12,12,0,0,1-.27-1.19c0-.2-.13-1.06,0,0,0-.26-.06-.52-.08-.78a23.72,23.72,0,0,1,0-2.53c0-.42-.18-.76,0,0a1.72,1.72,0,0,1,.08-.42,14.78,14.78,0,0,1,.43-1.48,11,11,0,0,1,.68-1.57c.34-.66.71-1.31,1.1-1.94a16.7,16.7,0,0,1,2.4-3.11A29.1,29.1,0,0,1,135,72.75a3.67,3.67,0,0,0,1.65-4.06,11,11,0,0,1-.53-3.19,12.7,12.7,0,0,1,.05-1.51c.06-.58-.12.48,0,0,.06-.25.14-.51.19-.76s.09-.25-.05,0c.08-.16.16-.33.25-.49s.21-.3.28-.45c-.11.22-.38.41-.07.11.12-.12.24-.26.36-.37s.67-.54.23-.22.1-.05.18-.1l.57-.33a3.63,3.63,0,0,0,.72-5.64c-.08-.09-.39-.43-.16-.13a5.58,5.58,0,0,1-.32-.52c0-.08-.29-.61-.1-.17s-.08-.26-.11-.36a12,12,0,0,1-.3-1.18s-.15-.94-.09-.46,0-.25,0-.33a14,14,0,0,1,0-1.45c0-.21,0-.43,0-.64-.05.75,0,.07,0-.11s.46-1.38.11-.66c.08-.16.18-.31.25-.47.26-.59-.39.31,0,0,.05,0,.58-.58.25-.29s.1-.1.2-.11c.42-.06-.71.12-.05.06.18,0,.37-.08.54-.11,1.27-.25,2.54-.45,3.81-.67a73,73,0,0,0,8.29-1.85,3.67,3.67,0,0,0,2.51-4.42A3.64,3.64,0,0,0,149.27,39.32Z"/><path class="cls-1" d="M72.81,44.53C57.9,53.86,37.27,68.47,39.22,89c.21,2.2,1.35,4.46,2.22,5.11A3.05,3.05,0,0,0,46.33,92C47.44,81.57,69.12,68,78.67,62,84,58.69,79,40.69,72.81,44.53Z"/><path class="cls-1" d="M44.66,58.33c5.06-2.84-.7-16.8-6.47-13.46-5.23,3-11.75,9.31-12,9.23a46.69,46.69,0,0,0-7.23-1.89c-4.83-.72-4.42,5.92-2.36,11.77-.47.57-.93,1.14-1.37,1.73A39.75,39.75,0,0,0,7.76,81C7,84.27,6.85,89,8.82,92c1.18,1.81,3.79,4.25,5.51,1.41,3.38-5.58,8.48-17.53,14.77-22,1.32,1.75,4.2,4.07,5.67,1.63a14.52,14.52,0,0,0,1.82-9c.58-.52,1.16-1.05,1.77-1.53A45.41,45.41,0,0,1,44.66,58.33Z"/><path class="cls-1" d="M115.33,44.94c-10.77-3.13-23.24,6-29,13.4C82.91,62.82,80.88,69.18,82,74.67a11,11,0,0,0,1.43,3.75,3.47,3.47,0,0,0-.43.29c-2.38,2.18-4.46,4.7-5,8s3.68,11.67,6.4,6.69c.89-1.64.12-5.51,12.65-10.63,4.56-1.86,3.3-12.05-4.54-12.24a22.8,22.8,0,0,1,1.44-2,21.1,21.1,0,0,1,3.14-3.13c.91,4.6,3.07,8.67,8.35,10.15,6.28,1.76,12.07.63,15.85-4.34C126.65,64.11,126,48,115.33,44.94Zm-1.57,15.43c-1.64,1.2-4.82,1.29-6.78,1a7.32,7.32,0,0,1-1.79-.45c3-1.16,6.77-2.1,9.54-1.39A9.23,9.23,0,0,1,113.76,60.37Z"/><path class="cls-1" d="M57.92,42.48c3.4-2.32,5.94-4.23,9.16-6.77,3.53-2.78,13.53-9.94,17.63-11.86,4.85-2.27.88-18-5.08-15.47-8.94,3.86-20.61,12.38-26,20.4-1.81,2.69-1.76,6.55-.76,9.57C53.43,40,55.39,44.21,57.92,42.48Z"/><path class="cls-1" d="M117.85,33.4a15.42,15.42,0,0,0,4.48-13.33c-.46-3.68-2.49-8.12-6.23-8.89a5.45,5.45,0,0,0-3.87-3.42c-4.16-.9-9.83,1.86-13.14,3.9-7.72,4.74-11.55,17.4-5.56,25.08C100,45.06,112.23,39.13,117.85,33.4Zm-14.31-8.81a26.24,26.24,0,0,1,4.2-1.94A18.54,18.54,0,0,1,110.5,22a7.43,7.43,0,0,0,.57,1.24,9.2,9.2,0,0,1-1.72,1.33c-2.15,1.22-6.13,2.82-9.15,2.28A15,15,0,0,1,103.54,24.59Z"/><path class="cls-1" d="M164,23.88c3.49-2.6,2.53-13.53-1.74-14.89-3.85-1.23-8,.59-11.43,2.31a8.94,8.94,0,0,0-3.25-2.76C143.07,6.32,137,7,133,9.5c-3.64,2.3-1.5,15,2.94,12.5a7.5,7.5,0,0,1,3.52-1c-6.15,3.07-11.73,5.38-13.93,9.78-1.56,3.12-.8,15.37,4,12.44,5.74-3.51,8.09-6,14.06-9.28.77-.42,1.48-.85,2.17-1.3a9.79,9.79,0,0,0,4.89,4.79c3.84,1.58,8.65,1.09,12.52.27C167.71,36.7,167.47,27.16,164,23.88Z"/><path class="cls-1" d="M24.5,43.19c5.74-3.51,8.09-6,14.06-9.28,5.33-2.9,8.85-6.48,9.56-12.64.52-4.57-.85-10.4-5.56-12.73C38.08,6.32,32,7,28,9.5c-3.64,2.3-1.5,15,2.94,12.5a7.56,7.56,0,0,1,3.52-1C28.28,24,22.7,26.35,20.5,30.75,18.94,33.87,19.7,46.12,24.5,43.19Z"/><path class="cls-1" d="M150.22,42.78a90.17,90.17,0,0,1-11.1,2.35c-1.76.32-2.38.26-3.65,1.69-2.11,2.37-1.6,8.2.08,10.6a9.93,9.93,0,0,0,.72.86c-2.43,1.31-4,3.46-3.76,7.84a14.48,14.48,0,0,0,.63,3.53c-5.83,3.54-10.69,8.41-12.76,14.84-1.23,3.82.37,14,4.35,9.14,6-7.28,12.85-12.93,22-15.84,3.61-1.14,3.2-7.17,2.1-9.94-.09-.22-.18-.4-.27-.6,2.53-1.43,3.38-3,3.5-6.28a11.39,11.39,0,0,0-1-5.39l.88-.32C155.61,54,153.87,41.66,150.22,42.78Z"/></g></g></svg>