<svg xmlns="http://www.w3.org/2000/svg" viewBox="0 0 118 118"><defs><style>.cls-1{fill:#6588c5;}.cls-2,.cls-4{fill:none;}.cls-2{stroke:#fff;stroke-width:9.45px;}.cls-2,.cls-4,.cls-5{stroke-miterlimit:10;}.cls-3,.cls-5{fill:#fff;}.cls-4,.cls-5{stroke:#6588c5;}.cls-4{stroke-width:5.4px;}</style></defs><g id="Layer_2" data-name="Layer 2"><g id="Layer_1-2" data-name="Layer 1"><rect class="cls-1" width="118" height="118" rx="34.14"/><path class="cls-2" d="M75.94,54.2,53.39,57.45c-8.5,4.81-15.59,11.42-18.61,20.14-1.79,5.18.53,19,6.34,12.39C49.8,80.11,59.88,72.44,73.28,68.5,78.55,67,78,58.77,76.34,55,76.21,54.72,76.07,54.47,75.94,54.2Z"/><path class="cls-2" d="M80.88,37.93c5.31-1.75,2.77-18.44-2.55-16.92a142.38,142.38,0,0,1-16.21,3.18c-2.57.43-3.46.36-5.32,2.3-3.08,3.21-2.34,11.12.11,14.38A12.89,12.89,0,0,0,58,42l21.62-3.67Z"/><path class="cls-2" d="M81.05,45.69a14.37,14.37,0,0,0-1.46-7.33L58,42c-3.56,1.78-5.91,4.7-5.5,10.63a19,19,0,0,0,.92,4.79L75.94,54.2C79.64,52.26,80.88,50.14,81.05,45.69Z"/><path class="cls-3" d="M75.94,54.2,53.39,57.45c-8.5,4.81-15.59,11.42-18.61,20.14-1.79,5.18.53,19,6.34,12.39C49.8,80.11,59.88,72.44,73.28,68.5,78.55,67,78,58.77,76.34,55,76.21,54.72,76.07,54.47,75.94,54.2Z"/><path class="cls-4" d="M75.94,54.2,53.39,57.45c-8.5,4.81-15.59,11.42-18.61,20.14-1.79,5.18.53,19,6.34,12.39C49.8,80.11,59.88,72.44,73.28,68.5,78.55,67,78,58.77,76.34,55,76.21,54.72,76.07,54.47,75.94,54.2Z"/><path class="cls-3" d="M80.88,37.93c5.31-1.75,2.77-18.44-2.55-16.92a142.38,142.38,0,0,1-16.21,3.18c-2.57.43-3.46.36-5.32,2.3-3.08,3.21-2.34,11.12.11,14.38A12.89,12.89,0,0,0,58,42l21.62-3.67Z"/><path class="cls-4" d="M80.88,37.93c5.31-1.75,2.77-18.44-2.55-16.92a142.38,142.38,0,0,1-16.21,3.18c-2.57.43-3.46.36-5.32,2.3-3.08,3.21-2.34,11.12.11,14.38A12.89,12.89,0,0,0,58,42l21.62-3.67Z"/><path class="cls-3" d="M81.05,45.69a14.37,14.37,0,0,0-1.46-7.33L58,42c-3.56,1.78-5.91,4.7-5.5,10.63a19,19,0,0,0,.92,4.79L75.94,54.2C79.64,52.26,80.88,50.14,81.05,45.69Z"/><path class="cls-4" d="M81.05,45.69a14.37,14.37,0,0,0-1.46-7.33L58,42c-3.56,1.78-5.91,4.7-5.5,10.63a19,19,0,0,0,.92,4.79L75.94,54.2C79.64,52.26,80.88,50.14,81.05,45.69Z"/><path class="cls-5" d="M75.94,54.2,53.39,57.45c-8.5,4.81-15.59,11.42-18.61,20.14-1.79,5.18.53,19,6.34,12.39C49.8,80.11,59.88,72.44,73.28,68.5,78.55,67,78,58.77,76.34,55,76.21,54.72,76.07,54.47,75.94,54.2Z"/><path class="cls-5" d="M80.88,37.93c5.31-1.75,2.77-18.44-2.55-16.92a142.38,142.38,0,0,1-16.21,3.18c-2.57.43-3.46.36-5.32,2.3-3.08,3.21-2.34,11.12.11,14.38A12.89,12.89,0,0,0,58,42l21.62-3.67Z"/><path class="cls-5" d="M81.05,45.69a14.37,14.37,0,0,0-1.46-7.33L58,42c-3.56,1.78-5.91,4.7-5.5,10.63a19,19,0,0,0,.92,4.79L75.94,54.2C79.64,52.26,80.88,50.14,81.05,45.69Z"/></g></g></svg>